<svg xmlns="http://www.w3.org/2000/svg" width="30" height="23.333" viewBox="0 0 30 23.333">
  <path id="Icon_awesome-cc-visa" data-name="Icon awesome-cc-visa" d="M24.484,12.63s.4,1.938.484,2.344h-1.74c.172-.464.833-2.266.833-2.266-.01.016.172-.474.276-.776l.146.7ZM30,4.75V23.083a2.5,2.5,0,0,1-2.5,2.5H2.5a2.5,2.5,0,0,1-2.5-2.5V4.75a2.5,2.5,0,0,1,2.5-2.5h25A2.5,2.5,0,0,1,30,4.75ZM7.943,17.833,11.234,9.75H9.021L6.974,15.271l-.224-1.12-.729-3.719a.871.871,0,0,0-.948-.682H1.7l-.036.161a8.265,8.265,0,0,1,2.2.891l1.865,7.031Zm4.917.01L14.172,9.75H12.078l-1.307,8.094h2.089ZM20.146,15.2c.01-.922-.552-1.625-1.755-2.2-.734-.37-1.182-.62-1.182-1,.01-.344.38-.7,1.2-.7a3.589,3.589,0,0,1,1.557.307l.188.089.286-1.75A5.2,5.2,0,0,0,18.568,9.6c-2.068,0-3.521,1.1-3.531,2.677-.016,1.161,1.042,1.807,1.833,2.2.807.4,1.083.656,1.083,1.005-.01.542-.656.792-1.255.792a4.172,4.172,0,0,1-1.964-.432l-.276-.13-.292,1.818a6.391,6.391,0,0,0,2.333.432C18.7,17.964,20.13,16.875,20.146,15.2ZM27.5,17.844,25.812,9.75h-1.62a1.03,1.03,0,0,0-1.094.672L19.99,17.844h2.2s.359-1,.438-1.214h2.688c.062.286.25,1.214.25,1.214Z" transform="translate(0 -2.25)"/>
</svg>
