<svg xmlns="http://www.w3.org/2000/svg" xmlns:xlink="http://www.w3.org/1999/xlink" width="42" height="42" viewBox="0 0 42 42">
  <defs>
    <filter id="Icon_awesome-youtube-square" x="0" y="0" width="42" height="42" filterUnits="userSpaceOnUse">
      <feOffset dx="-2" dy="2" input="SourceAlpha"/>
      <feGaussianBlur stdDeviation="1" result="blur"/>
      <feFlood flood-color="#96031a"/>
      <feComposite operator="in" in2="blur"/>
      <feComposite in="SourceGraphic"/>
    </filter>
  </defs>
  <g transform="matrix(1, 0, 0, 1, 0, 0)" filter="url(#Icon_awesome-youtube-square)">
    <path id="Icon_awesome-youtube-square-2" data-name="Icon awesome-youtube-square" d="M15.011,15.919l7.65,4.347-7.65,4.347ZM36,6.107V34.393a3.858,3.858,0,0,1-3.857,3.857H3.857A3.858,3.858,0,0,1,0,34.393V6.107A3.858,3.858,0,0,1,3.857,2.25H32.143A3.858,3.858,0,0,1,36,6.107ZM32.625,20.274a38.613,38.613,0,0,0-.611-7.087,3.668,3.668,0,0,0-2.588-2.6C27.153,9.964,18,9.964,18,9.964s-9.153,0-11.427.619a3.668,3.668,0,0,0-2.587,2.6,38.565,38.565,0,0,0-.611,7.087,38.612,38.612,0,0,0,.611,7.088,3.615,3.615,0,0,0,2.587,2.563c2.274.611,11.427.611,11.427.611s9.153,0,11.427-.619a3.615,3.615,0,0,0,2.588-2.563,38.494,38.494,0,0,0,.611-7.079Z" transform="translate(5 -1.25)" fill="#faa916"/>
  </g>
</svg>
