<?xml version="1.0" encoding="utf-8"?>
<!-- Generator: Adobe Illustrator 24.2.3, SVG Export Plug-In . SVG Version: 6.00 Build 0)  -->
<svg version="1.1" id="Layer_1" xmlns="http://www.w3.org/2000/svg" xmlns:xlink="http://www.w3.org/1999/xlink" x="0px" y="0px"
	 viewBox="0 0 328.7 223.83" style="enable-background:new 0 0 328.7 223.83;" xml:space="preserve">
<style type="text/css">
	.st0{fill:none;stroke:#000000;stroke-width:3;stroke-linecap:round;stroke-miterlimit:10;}
	.st1{fill:#FFFFFF;stroke:#000000;stroke-width:3;stroke-linecap:round;stroke-miterlimit:10;}
</style>
<path class="st0" d="M17.5,14.81v166.73c0.81-65.61,123.45-12.86,157.09,0c3.98,1.52,12.57,0,12.57-15.18V44.68
	c0-2.9,1.56-5.51,3.93-6.55c20.05-8.81,110.44-45.9,121.09-3.09"/>
<line class="st1" x1="235.1" y1="22.08" x2="235.1" y2="181.55"/>
<line class="st1" x1="187.16" y1="101.81" x2="211.28" y2="98.18"/>
<line class="st1" x1="235.1" y1="101.81" x2="259.8" y2="97.7"/>
<g>
	<path d="M18.15,211.01h-1.8v-22.22h1.8V211.01z"/>
	<path d="M36.53,211.01l-10.8-17.84c-0.14-0.23-0.27-0.46-0.4-0.7c-0.13-0.24-0.24-0.47-0.32-0.7h-0.07
		c0.02,0.19,0.03,0.44,0.05,0.77c0.01,0.33,0.02,0.74,0.02,1.24v17.22h-1.8v-22.22h1.99l10.62,17.62c0.16,0.28,0.31,0.54,0.44,0.78
		c0.13,0.24,0.25,0.47,0.36,0.67h0.07c-0.04-0.34-0.06-0.72-0.08-1.15c-0.02-0.42-0.03-0.89-0.03-1.41v-16.52h1.82v22.22H36.53z"/>
	<path d="M56.52,210.19c-1.5,0.81-3.21,1.21-5.14,1.21c-1.37,0-2.62-0.28-3.74-0.83c-1.12-0.55-2.08-1.32-2.87-2.3
		c-0.79-0.98-1.4-2.15-1.83-3.5s-0.64-2.83-0.64-4.43c0-1.68,0.23-3.25,0.69-4.7c0.46-1.45,1.11-2.71,1.96-3.78
		c0.85-1.07,1.88-1.91,3.09-2.52c1.21-0.61,2.56-0.92,4.06-0.92c1.65,0,3.13,0.29,4.44,0.87v2.2c-1.39-0.79-2.88-1.19-4.46-1.19
		c-1.26,0-2.37,0.25-3.35,0.74s-1.8,1.19-2.47,2.07c-0.67,0.88-1.18,1.93-1.53,3.13c-0.35,1.2-0.53,2.52-0.53,3.94
		c0,1.28,0.16,2.49,0.47,3.62c0.32,1.13,0.78,2.12,1.4,2.97c0.62,0.85,1.39,1.52,2.31,2.01s1.99,0.74,3.21,0.74
		c1.87,0,3.52-0.45,4.94-1.35V210.19z"/>
</g>
<g>
</g>
<g>
</g>
<g> 
</g>
<g>
</g>
<g>
</g>
<g>
</g>
</svg>
