<svg xmlns="http://www.w3.org/2000/svg" width="100" height="86.369" viewBox="0 0 100 86.369">
  <path id="Path_55" data-name="Path 55" d="M37.366,52A18.183,18.183,0,1,0,19.183,33.82,18.178,18.178,0,0,0,37.366,52Zm0-27.274a9.091,9.091,0,1,1-9.091,9.091A9.118,9.118,0,0,1,37.366,24.729Zm0,36.366C25.229,61.094,1,67.186,1,79.277v9.091H73.731V79.277C73.731,67.186,49.5,61.094,37.366,61.094ZM10.091,79.277c1-3.273,15.046-9.091,27.274-9.091,12.273,0,26.365,5.864,27.274,9.091ZM65,24.956a15.08,15.08,0,0,1,0,17.683l7.637,7.682c9.182-9.182,9.182-23.047,0-33.047L65,24.956ZM87.687,2l-7.41,7.41c12.592,13.728,12.592,34.366,0,48.821l7.41,7.41C105.415,47.957,105.46,20.41,87.687,2Z" transform="translate(-1 -2)" fill="#ffd131"/>
</svg>
