<svg xmlns="http://www.w3.org/2000/svg" width="85.296" height="71.042" viewBox="0 0 85.296 71.042">
  <g id="Layer_2" data-name="Layer 2" transform="translate(-6.25 -14.583)">
    <g id="icons_Q2" data-name="icons Q2" transform="translate(6.25 14.583)">
      <g id="Group_68" data-name="Group 68">
        <path id="Path_38" data-name="Path 38" d="M32.708,31.583l-3.75,6.042,2.917,2.917,6.042-3.75L40,37.625,41.667,44.5h4.167L47.5,37.625l2.083-.833,6.042,3.75,2.917-2.917-3.75-6.042a8.75,8.75,0,0,0,.833-2.083L62.5,27.833V23.667L55.625,22a8.75,8.75,0,0,0-.833-2.083l3.75-6.042-2.917-2.917-6.042,3.75L47.5,13.875,45.833,7H41.667L40,13.875l-2.083.833-6.042-3.75-2.917,2.917,3.75,6.042A8.75,8.75,0,0,0,31.875,22L25,23.667v4.167L31.875,29.5a8.75,8.75,0,0,0,.833,2.083Zm11.042-10a4.167,4.167,0,1,1-4.167,4.167A4.167,4.167,0,0,1,43.75,21.583Z" transform="translate(20.833 -7)"/>
        <path id="Path_39" data-name="Path 39" d="M84.667,39.208a10.833,10.833,0,0,0-8.333-2.292l-20.625,3.75a9.375,9.375,0,0,0-2.917-6.875L38,19H7.167a4.167,4.167,0,1,0,0,8.333h27.5L46.958,39.625a1.768,1.768,0,1,1-2.5,2.5l-7.292-7.292a4.167,4.167,0,0,0-5.833,5.833l7.292,7.292a9.375,9.375,0,0,0,7.083,2.917,11.875,11.875,0,0,0,3.75-.625h0l28.333-5a2.083,2.083,0,0,1,1.667.417,1.875,1.875,0,0,1,.625,1.458,2.083,2.083,0,0,1-1.667,2.083l-38.75,7.083L16.958,37.75H7.167a4.167,4.167,0,1,0,0,8.333h6.875L37.167,65.042l42.708-7.708a10.417,10.417,0,0,0,4.792-18.125Z" transform="translate(-3 6)"/>
      </g>
    </g>
  </g>
</svg>
