<svg xmlns="http://www.w3.org/2000/svg" width="100" height="72.727" viewBox="0 0 100 72.727">
  <path id="Path_56" data-name="Path 56" d="M87.364,22.182H73.727V4H10.091A9.118,9.118,0,0,0,1,13.091v50h9.091a13.636,13.636,0,0,0,27.273,0H64.636a13.636,13.636,0,0,0,27.273,0H101V40.364ZM85.091,29,94,40.364H73.727V29ZM23.727,67.636a4.545,4.545,0,1,1,4.545-4.545A4.559,4.559,0,0,1,23.727,67.636ZM33.818,54a13.474,13.474,0,0,0-20.182,0H10.091V13.091H64.636V54ZM78.273,67.636a4.545,4.545,0,1,1,4.545-4.545A4.559,4.559,0,0,1,78.273,67.636Z" transform="translate(-1 -4)"/>
</svg>
