<svg xmlns="http://www.w3.org/2000/svg" width="23.436" height="23.477" viewBox="0 0 23.436 23.477">
  <path id="Icon_feather-phone-call" data-name="Icon feather-phone-call" d="M16.38,5.585a5.106,5.106,0,0,1,4.034,4.034M16.38,1.5A9.19,9.19,0,0,1,24.5,9.608m-1.021,8.149V20.82a2.042,2.042,0,0,1-2.226,2.042,20.209,20.209,0,0,1-8.813-3.135A19.913,19.913,0,0,1,6.311,13.6,20.209,20.209,0,0,1,3.176,4.747,2.042,2.042,0,0,1,5.208,2.521H8.272a2.042,2.042,0,0,1,2.042,1.756,13.112,13.112,0,0,0,.715,2.869,2.042,2.042,0,0,1-.46,2.155l-1.3,1.3A16.338,16.338,0,0,0,15.4,16.725l1.3-1.3a2.042,2.042,0,0,1,2.155-.46,13.112,13.112,0,0,0,2.869.715A2.042,2.042,0,0,1,23.477,17.757Z" transform="translate(-2.167 -0.396)" fill="none" stroke="#000" stroke-linecap="round" stroke-linejoin="round" stroke-width="2"/>
</svg>
