<svg xmlns="http://www.w3.org/2000/svg" xmlns:xlink="http://www.w3.org/1999/xlink" width="42" height="42" viewBox="0 0 42 42">
  <defs>
    <filter id="Icon_awesome-facebook-square" x="0" y="0" width="42" height="42" filterUnits="userSpaceOnUse">
      <feOffset dx="-2" dy="2" input="SourceAlpha"/>
      <feGaussianBlur stdDeviation="1" result="blur"/>
      <feFlood flood-color="#96031a"/>
      <feComposite operator="in" in2="blur"/>
      <feComposite in="SourceGraphic"/>
    </filter>
  </defs>
  <g transform="matrix(1, 0, 0, 1, 0, 0)" filter="url(#Icon_awesome-facebook-square)">
    <path id="Icon_awesome-facebook-square-2" data-name="Icon awesome-facebook-square" d="M32.143,2.25H3.857A3.857,3.857,0,0,0,0,6.107V34.393A3.857,3.857,0,0,0,3.857,38.25H14.886V26.011H9.824V20.25h5.063V15.859c0-4.994,2.973-7.753,7.527-7.753a30.67,30.67,0,0,1,4.461.389v4.9H24.362c-2.476,0-3.248,1.536-3.248,3.112V20.25h5.527l-.884,5.761H21.114V38.25H32.143A3.857,3.857,0,0,0,36,34.393V6.107A3.857,3.857,0,0,0,32.143,2.25Z" transform="translate(5 -1.25)" fill="#faa916"/>
  </g>
</svg>
