<svg xmlns="http://www.w3.org/2000/svg" width="20" height="13.846" viewBox="0 0 20 13.846">
  <g id="Icon_ionic-ios-mail" data-name="Icon ionic-ios-mail" transform="translate(-3.375 -7.875)">
    <path id="Path_4" data-name="Path 4" d="M23.212,10.343l-5.173,5.269a.093.093,0,0,0,0,.135l3.62,3.856a.624.624,0,0,1,0,.885.627.627,0,0,1-.885,0l-3.606-3.841a.1.1,0,0,0-.139,0l-.88.894a3.871,3.871,0,0,1-2.76,1.163,3.949,3.949,0,0,1-2.817-1.2l-.846-.861a.1.1,0,0,0-.139,0L5.981,20.488a.627.627,0,0,1-.885,0,.624.624,0,0,1,0-.885l3.62-3.856a.1.1,0,0,0,0-.135L3.538,10.343a.1.1,0,0,0-.163.067V20.954a1.543,1.543,0,0,0,1.538,1.538H21.837a1.543,1.543,0,0,0,1.538-1.538V10.411A.1.1,0,0,0,23.212,10.343Z" transform="translate(0 -0.771)" fill="rgba(0,0,0,0.9)"/>
    <path id="Path_5" data-name="Path 5" d="M13.644,16.678a2.614,2.614,0,0,0,1.88-.788l7.543-7.678a1.511,1.511,0,0,0-.952-.337H5.178a1.5,1.5,0,0,0-.952.337l7.543,7.678A2.614,2.614,0,0,0,13.644,16.678Z" transform="translate(-0.269 0)" fill="rgba(0,0,0,0.9)"/>
  </g>
</svg>
